<?xml version="1.0" encoding="UTF-8" standalone="no"?>
<!-- Created with Inkscape (http://www.inkscape.org/) -->

<svg
   width="800mm"
   height="1000mm"
   viewBox="0 0 800 1000"
   version="1.1"
   id="svg5"
   inkscape:version="1.1 (c68e22c387, 2021-05-23)"
   sodipodi:docname="drawing.svg"
   xmlns:inkscape="http://www.inkscape.org/namespaces/inkscape"
   xmlns:sodipodi="http://sodipodi.sourceforge.net/DTD/sodipodi-0.dtd"
   xmlns="http://www.w3.org/2000/svg"
   xmlns:svg="http://www.w3.org/2000/svg">
  <sodipodi:namedview
     id="namedview7"
     pagecolor="#ffffff"
     bordercolor="#111111"
     borderopacity="1"
     inkscape:pageshadow="0"
     inkscape:pageopacity="0"
     inkscape:pagecheckerboard="1"
     inkscape:document-units="mm"
     showgrid="false"
     showguides="true"
     inkscape:zoom="0.080315843"
     inkscape:cx="1363.3674"
     inkscape:cy="1562.5809"
     inkscape:window-width="1280"
     inkscape:window-height="737"
     inkscape:window-x="-8"
     inkscape:window-y="-8"
     inkscape:window-maximized="1"
     inkscape:current-layer="layer1"
     width="1000mm" />
  <defs
     id="defs2">
    <clipPath
       clipPathUnits="userSpaceOnUse"
       id="clipPath13970">
      <path
         style="fill:#000000;fill-opacity:1;stroke:#000000;stroke-width:0.937499px;stroke-linecap:butt;stroke-linejoin:miter;stroke-opacity:1"
         d="m 353.50002,135.99999 h -248 l -41.796494,-0.20448 -47.588428,295.07411 12.380747,73.25267 124.839035,21.66626 293.01066,-21.66626 25.79319,-238.32912 z"
         id="path13972" />
    </clipPath>
  </defs>
  <g
     inkscape:label="Layer 1"
     inkscape:groupmode="layer"
     id="layer1">
    <g
       id="g14077"
       transform="matrix(7.1879836,0,0,7.1879836,1693.3064,-408.51217)">
      <g
         id="g12769"
         transform="matrix(0.28222222,0,0,0.28222222,-241.85686,57.472549)"
         clip-path="url(#clipPath13970)">
        <path
           style="color:#000000;fill:#ffdfba;-inkscape-stroke:none"
           d="m 345.5,182 c 0,13.81 -11.19,25 -25,25 v 3.13 c 0,41.27 -25.25,76.64 -61.15,91.5 l 0.15,0.37 c 0,6.971 -1.673,25.497 15.7,39.24 6.97,5.51 15.77,8.84 25.33,8.93 41.23,0.39 74.97,32.95 74.97,74.18 V 464 c 0,4.42 -3.58,8 -8,8 h -292 c -4.42,0 -8,-3.58 -8,-8 v -39.65 c 0,-41.23 33.74,-73.79 74.97,-74.18 22.584,-0.213 41.03,-18.508 41.03,-41.34 V 302 l 0.15,-0.37 C 147.75,286.77 122.5,251.4 122.5,210.13 V 207 c -14.252,0 -25,-11.262 -25,-24.54 V 104 c 0,-53.02 42.98,-96 96,-96 h 56 c 53.02,0 96,42.98 96,96 z"
           id="path12722" />
        <path
           style="color:#000000;fill:#ffe773;-inkscape-stroke:none"
           d="m 345.5,128 v 54 c 0,13.81 -11.19,25 -25,25 0,-12.72 0,-54.94 0,-79 z"
           id="path12724" />
        <path
           style="color:#000000;fill:#ffebd2;-inkscape-stroke:none"
           d="m 320.5,210.13 c 0,54.696 -44.348,99 -99,99 -51.492,0 -99,-40.031 -99,-102.13 v -79 h 198 z"
           id="path12728" />
        <path
           style="color:#000000;fill:#fe4f60;-inkscape-stroke:none"
           d="M 375.5,424.35 V 464 c 0,4.42 -3.58,8 -8,8 h -292 c -4.42,0 -8,-3.58 -8,-8 v -39.65 c 0,-41.23 33.74,-73.79 74.97,-74.18 9.56,-0.09 18.36,-3.42 25.33,-8.93 8.033,8.033 20.737,18.755 24.37,40.52 18.029,8.228 42.106,7.762 58.58,0.51 3.469,-21.956 16.201,-32.781 24.45,-41.03 6.97,5.51 15.77,8.84 25.33,8.93 41.23,0.39 74.97,32.95 74.97,74.18 z"
           id="path12730" />
        <path
           style="color:#000000;fill:#42434d;-inkscape-stroke:none"
           d="m 250.75,382.27 c -1.037,6.428 -0.76,2.023 -0.76,89.73 h -56.98 c 0,-87.595 0.304,-83.46 -0.84,-90.24 18.124,8.268 42.199,7.714 58.58,0.51 z"
           id="path12732" />
        <path
           style="color:#000000;fill:#2c2c33;-inkscape-stroke:none"
           d="m 206.01,472 h -13 c 0,-87.595 0.304,-83.46 -0.84,-90.24 4.25,1.94 8.84,3.4 13.57,4.39 0.382,4.009 0.27,-1.191 0.27,85.85 z"
           id="path12734" />
        <path
           style="color:#000000;fill:#ffec8f;-inkscape-stroke:none"
           d="m 122.5,128 v 79 c -14.255,0 -25,-11.265 -25,-24.54 V 128 Z"
           id="path12736" />
        <path
           style="color:#000000;fill:#fff3e4;-inkscape-stroke:none"
           d="m 152.5,128 v 62.13 c 0,36.51 19.192,66.79 46.584,83.927 16.277,10.183 3.442,35.156 -14.376,28.004 C 148.074,287.357 122.5,251.657 122.5,210.129 V 128 Z"
           id="path12738" />
        <path
           style="color:#000000;fill:#ffd6a6;-inkscape-stroke:none"
           d="m 260.63,318.42 c -24.637,10.313 -51.712,11.113 -78.26,0 1.356,-5.626 1.13,-9.27 1.13,-16.42 l 0.15,-0.37 c 24.082,9.996 51.571,10.016 75.7,0 l 0.15,0.37 c 0,7.153 -0.226,10.796 1.13,16.42 z"
           id="path12740" />
        <path
           style="color:#000000;fill:#ff6d7a;-inkscape-stroke:none"
           d="M 168.354,376.169 C 127.182,376.445 93.5,408.92 93.5,450.093 V 472 h -18 c -4.418,0 -8,-3.582 -8,-8 v -39.645 c 0,-41.236 33.736,-73.797 74.971,-74.187 9.565,-0.09 18.356,-3.415 25.329,-8.928 4.146,4.146 8.147,7.884 11.771,12.347 7.035,8.661 1.899,22.494 -11.217,22.582 z"
           id="path12742" />
        <path
           style="color:#000000;fill:#e84857;-inkscape-stroke:none"
           d="m 274.646,376.169 c 41.172,0.276 74.854,32.751 74.854,73.924 V 472 h 18 c 4.418,0 8,-3.582 8,-8 v -39.645 c 0,-41.236 -33.737,-73.797 -74.971,-74.187 -9.565,-0.09 -18.356,-3.415 -25.329,-8.928 -4.146,4.146 -8.147,7.884 -11.771,12.347 -7.035,8.661 -1.899,22.494 11.217,22.582 z"
           id="path12744" />
        <path
           style="color:#000000;fill:#000000;-inkscape-stroke:none"
           d="m 412.5,120 h -59 V 104 C 353.5,46.654 306.846,0 249.5,0 h -56 c -57.346,0 -104,46.654 -104,104 v 78.46 c 0,15.303 10.707,28.165 25.077,31.62 1.494,40.859 26.004,75.946 60.923,92.643 v 2.107 c 0,8.913 -3.476,17.287 -9.787,23.581 -11.193,11.161 -25.298,9.761 -23.642,9.761 -45.636,0 -82.571,36.93 -82.571,82.571 V 472 c 0,4.418 3.582,8 8,8 4.418,0 8,-3.582 8,-8 v -47.257 c 0,-36.795 29.775,-66.572 66.573,-66.571 26.216,0 47.269,-20.179 49.257,-45.385 69.291,20.399 137.17,-32.57 137.17,-102.053 V 136 h 9 v 46.46 c 0,4.418 3.582,8 8,8 4.418,0 8,-3.582 8,-8 V 136 h 59 c 4.418,0 8,-3.582 8,-8 0,-4.418 -3.582,-8 -8,-8 z m -307,-16 c 0,-48.523 39.477,-88 88,-88 h 56 c 48.523,0 88,39.477 88,88 v 16 h -232 z m 0,78.46 V 136 h 9 v 61.096 c -5.344,-2.771 -9,-8.288 -9,-14.636 z m 207,27.665 c 0,50.177 -40.822,91 -91,91 -50.178,0 -91,-40.822 -91,-91 V 136 h 182 z m 71,214.618 V 472 c 0,4.418 -3.582,8 -8,8 -4.418,0 -8,-3.582 -8,-8 v -47.257 c 0,-36.795 -29.775,-66.572 -66.573,-66.571 -8.905,0 -17.38,-2.333 -24.754,-6.588 l -2.558,2.558 c -10.078,10.078 -15.629,23.479 -15.629,37.731 V 472 c 0,4.418 -3.582,8 -8,8 -4.418,0 -8,-3.582 -8,-8 v -78.984 c -13.109,3.653 -27.302,3.824 -40.971,0.014 V 472 c 0,4.418 -3.582,8 -8,8 -4.418,0 -8,-3.582 -8,-8 v -80.127 c 0,-8.023 -1.853,-16.082 -5.357,-23.303 -1.929,-3.975 -0.271,-8.761 3.704,-10.69 3.976,-1.929 8.762,-0.271 10.69,3.704 2.149,4.429 3.802,9.104 4.968,13.899 14.022,5.621 30.035,5.954 44.913,0.008 3.432,-14.235 10.291,-24.587 19.833,-34.128 -1.866,-2.136 -3.583,-4.435 -5.096,-6.919 -2.299,-3.773 -1.103,-8.696 2.67,-10.994 3.772,-2.299 8.695,-1.103 10.994,2.671 5.899,9.684 16.457,16.051 28.594,16.051 45.637,-0.002 82.572,36.93 82.572,82.571 z"
           id="path12748" />
      </g>
      <g
         id="g71"
         transform="matrix(0.25311031,0,0,0.26458333,-244.47203,59.847008)"
         mask="none"
         clip-path="none">
        <g
           id="g59">
          <path
             style="color:#000000;fill:#ffd15b;-inkscape-stroke:none"
             d="m 450.491,160.032 h -23.394 c -1.105,0 -2,-0.895 -2,-2 v -20.397 c 0,-7.565 6.132,-13.697 13.697,-13.697 7.565,0 13.697,6.132 13.697,13.697 v 20.397 c 0,1.105 -0.895,2 -2,2 z"
             id="path39" />
          <path
             style="color:#000000;fill:#596c76;-inkscape-stroke:none"
             d="M 115.91,22.841 H 390.092 V 127.559 H 115.91 Z"
             id="path43" />
          <path
             style="color:#000000;fill:#465a61;-inkscape-stroke:none"
             d="m 371.307,22.841 h 26.299 v 104.718 h -26.299 z"
             id="path45" />
          <g
             fill="#d8ecfe"
             id="g53" />
          <path
             style="color:#000000;fill:#7a8c98;-inkscape-stroke:none"
             d="m 432.117,7.5 c -2.43,0 -359.353,0 -366.234,0 -8.473,0 -15.341,6.868 -15.341,15.341 0,8.473 6.868,15.341 15.341,15.341 h 366.234 c 8.473,0 15.341,-6.868 15.341,-15.341 0,-8.473 -6.869,-15.341 -15.341,-15.341 z"
             id="path55" />
          <path
             style="color:#000000;fill:#596c76;-inkscape-stroke:none"
             d="m 446.117,7.5 h -24 c 8.473,0 15.341,6.868 15.341,15.341 0,8.473 -6.868,15.341 -15.341,15.341 h 24 c 8.473,0 15.341,-6.868 15.341,-15.341 0,-8.473 -6.869,-15.341 -15.341,-15.341 z"
             id="path57" />
        </g>
        <g
           id="g69">
          <path
             id="path67"
             style="color:#000000;fill:#000000;-inkscape-stroke:none"
             d="m -365.38477,231.17578 c -12.594,0 -22.84179,10.24485 -22.84179,22.83984 0,12.595 10.24779,22.8418 22.84179,22.8418 h 42.52735 l -0.55025,91.80063 296.693353,1.08143 0.550255,-37.97758 V 276.85719 H 0.02539063 v 72.15235 c -7.99199993,3.038 -13.69726563,10.75578 -13.69726563,19.80078 v 20.39648 c 0,5.238 4.2620001,9.5 9.5,9.5 h 23.396484 c 5.238,0 9.5,-4.262 9.5,-9.5 v -20.39648 c 0,-9.045 -5.705265,-16.76278 -13.697265,-19.80078 v -72.15821 c 12.512,-0.096 22.662109,-10.30094 22.662109,-22.83594 0,-12.59499 -10.245844,-22.83984 -22.839844,-22.83984 H -282.70312 c -4.142,0 -7.5,3.358 -7.5,7.5 0,4.142 3.358,7.5 7.5,7.5 H 14.849609 c 4.323,0 7.839844,3.51685 7.839844,7.83984 0,4.323 -3.516844,7.8418 -7.839844,7.8418 H -365.38477 c -4.323,0 -7.84179,-3.5188 -7.84179,-7.8418 0,-4.32299 3.51879,-7.83984 7.84179,-7.83984 h 47.6836 c 4.142,0 7.5,-3.358 7.5,-7.5 0,-4.142 -3.358,-7.5 -7.5,-7.5 z m 57.52735,45.68164 h 266.693358 v 74.37696 H -307.85742 Z M 7.5253906,362.61328 c 3.4170004,0 6.1972654,2.78027 6.1972654,6.19727 v 14.89648 H 1.328125 v -14.89648 c 0,-3.417 2.7802657,-6.19727 6.1972656,-6.19727 z"
             transform="translate(431.26814,-231.17496)"
             sodipodi:nodetypes="ssscccccccssssssccssssssssssssssscccccssccss" />
        </g>
      </g>
    </g>
  </g>
</svg>
