<?xml version="1.0" encoding="UTF-8" standalone="no"?>
<!-- Created with Inkscape (http://www.inkscape.org/) -->

<svg
   width="1000mm"
   height="1000mm"
   viewBox="0 0 1000 1000"
   version="1.1"
   id="svg5"
   inkscape:version="1.1 (c68e22c387, 2021-05-23)"
   sodipodi:docname="skills2.svg"
   xmlns:inkscape="http://www.inkscape.org/namespaces/inkscape"
   xmlns:sodipodi="http://sodipodi.sourceforge.net/DTD/sodipodi-0.dtd"
   xmlns="http://www.w3.org/2000/svg"
   xmlns:svg="http://www.w3.org/2000/svg">
  <sodipodi:namedview
     id="namedview7"
     pagecolor="#ffffff"
     bordercolor="#111111"
     borderopacity="1"
     inkscape:pageshadow="0"
     inkscape:pageopacity="0"
     inkscape:pagecheckerboard="1"
     inkscape:document-units="mm"
     showgrid="false"
     width="1000mm"
     inkscape:zoom="0.056791877"
     inkscape:cx="-2174.6068"
     inkscape:cy="1752.0111"
     inkscape:window-width="1280"
     inkscape:window-height="737"
     inkscape:window-x="-8"
     inkscape:window-y="-8"
     inkscape:window-maximized="1"
     inkscape:current-layer="layer1" />
  <defs
     id="defs2" />
  <g
     inkscape:label="Layer 1"
     inkscape:groupmode="layer"
     id="layer1">
    <g
       id="g2481"
       transform="matrix(4.5145348,0,0,4.5145348,947.98064,-82.931364)">
      <g
         id="g56"
         transform="matrix(0.28222222,0,0,0.28222222,-224.05835,61.389908)">
        <path
           d="m 345.5,182 c 0,13.81 -11.19,25 -25,25 v 3.13 c 0,41.27 -25.25,76.64 -61.15,91.5 l 0.15,0.37 c 0,6.971 -1.673,25.497 15.7,39.24 6.97,5.51 15.77,8.84 25.33,8.93 41.23,0.39 74.97,32.95 74.97,74.18 V 464 c 0,4.42 -3.58,8 -8,8 h -292 c -4.42,0 -8,-3.58 -8,-8 v -39.65 c 0,-41.23 33.74,-73.79 74.97,-74.18 22.584,-0.213 41.03,-18.508 41.03,-41.34 V 302 l 0.15,-0.37 C 147.75,286.77 122.5,251.4 122.5,210.13 V 207 c -14.252,0 -25,-11.262 -25,-24.54 V 104 c 0,-53.02 42.98,-96 96,-96 h 56 c 53.02,0 96,42.98 96,96 z"
           fill="#ffdfba"
           id="path9" />
        <path
           d="m 345.5,128 v 54 c 0,13.81 -11.19,25 -25,25 0,-12.72 0,-54.94 0,-79 z"
           fill="#ffe773"
           id="path11" />
        <path
           d="m 345.5,128 h -248 v -24 c 0,-53.02 42.98,-96 96,-96 h 56 c 53.02,0 96,42.98 96,96 z"
           fill="#fe4f60"
           id="path13" />
        <path
           d="m 320.5,210.13 c 0,54.696 -44.348,99 -99,99 -51.492,0 -99,-40.031 -99,-102.13 v -79 h 198 z"
           fill="#ffebd2"
           id="path15" />
        <path
           d="M 375.5,424.35 V 464 c 0,4.42 -3.58,8 -8,8 h -292 c -4.42,0 -8,-3.58 -8,-8 v -39.65 c 0,-41.23 33.74,-73.79 74.97,-74.18 9.56,-0.09 18.36,-3.42 25.33,-8.93 8.033,8.033 20.737,18.755 24.37,40.52 18.029,8.228 42.106,7.762 58.58,0.51 3.469,-21.956 16.201,-32.781 24.45,-41.03 6.97,5.51 15.77,8.84 25.33,8.93 41.23,0.39 74.97,32.95 74.97,74.18 z"
           fill="#fe4f60"
           id="path17" />
        <path
           d="m 250.75,382.27 c -1.037,6.428 -0.76,2.023 -0.76,89.73 h -56.98 c 0,-87.595 0.304,-83.46 -0.84,-90.24 18.124,8.268 42.199,7.714 58.58,0.51 z"
           fill="#42434d"
           id="path19" />
        <path
           d="m 206.01,472 h -13 c 0,-87.595 0.304,-83.46 -0.84,-90.24 4.25,1.94 8.84,3.4 13.57,4.39 0.382,4.009 0.27,-1.191 0.27,85.85 z"
           fill="#2c2c33"
           id="path21" />
        <path
           d="m 122.5,128 v 79 c -14.255,0 -25,-11.265 -25,-24.54 V 128 Z"
           fill="#ffec8f"
           id="path23" />
        <path
           d="m 152.5,128 v 62.13 c 0,36.51 19.192,66.79 46.584,83.927 16.277,10.183 3.442,35.156 -14.376,28.004 C 148.074,287.357 122.5,251.657 122.5,210.129 V 128 Z"
           fill="#fff3e4"
           id="path25" />
        <path
           d="m 260.63,318.42 c -24.637,10.313 -51.712,11.113 -78.26,0 1.356,-5.626 1.13,-9.27 1.13,-16.42 l 0.15,-0.37 c 24.082,9.996 51.571,10.016 75.7,0 l 0.15,0.37 c 0,7.153 -0.226,10.796 1.13,16.42 z"
           fill="#ffd6a6"
           id="path27" />
        <path
           d="M 168.354,376.169 C 127.182,376.445 93.5,408.92 93.5,450.093 V 472 h -18 c -4.418,0 -8,-3.582 -8,-8 v -39.645 c 0,-41.236 33.736,-73.797 74.971,-74.187 9.565,-0.09 18.356,-3.415 25.329,-8.928 4.146,4.146 8.147,7.884 11.771,12.347 7.035,8.661 1.899,22.494 -11.217,22.582 z"
           fill="#ff6d7a"
           id="path29" />
        <path
           d="m 274.646,376.169 c 41.172,0.276 74.854,32.751 74.854,73.924 V 472 h 18 c 4.418,0 8,-3.582 8,-8 v -39.645 c 0,-41.236 -33.737,-73.797 -74.971,-74.187 -9.565,-0.09 -18.356,-3.415 -25.329,-8.928 -4.146,4.146 -8.147,7.884 -11.771,12.347 -7.035,8.661 -1.899,22.494 11.217,22.582 z"
           fill="#e84857"
           id="path31" />
        <path
           d="m 284.641,14.635 c 12.513,4.925 8.871,23.444 -4.576,23.366 C 279.603,37.999 223.962,38 223.5,38 c -47.497,0 -86.945,34.494 -94.636,79.807 -0.995,5.863 -6,10.193 -11.946,10.193 H 97.5 v -24 c 0,-53.019 42.981,-96 96,-96 h 56 c 12.404,0 24.258,2.352 35.141,6.635 z"
           fill="#ff6d7a"
           id="path33" />
        <path
           d="m 412.5,120 h -59 V 104 C 353.5,46.654 306.846,0 249.5,0 h -56 c -57.346,0 -104,46.654 -104,104 v 78.46 c 0,15.303 10.707,28.165 25.077,31.62 1.494,40.859 26.004,75.946 60.923,92.643 v 2.107 c 0,8.913 -3.476,17.287 -9.787,23.581 -11.193,11.161 -25.298,9.761 -23.642,9.761 -45.636,0 -82.571,36.93 -82.571,82.571 V 472 c 0,4.418 3.582,8 8,8 4.418,0 8,-3.582 8,-8 v -47.257 c 0,-36.795 29.775,-66.572 66.573,-66.571 26.216,0 47.269,-20.179 49.257,-45.385 69.291,20.399 137.17,-32.57 137.17,-102.053 V 136 h 9 v 46.46 c 0,4.418 3.582,8 8,8 4.418,0 8,-3.582 8,-8 V 136 h 59 c 4.418,0 8,-3.582 8,-8 0,-4.418 -3.582,-8 -8,-8 z m -307,-16 c 0,-48.523 39.477,-88 88,-88 h 56 c 48.523,0 88,39.477 88,88 v 16 h -232 z m 0,78.46 V 136 h 9 v 61.096 c -5.344,-2.771 -9,-8.288 -9,-14.636 z m 207,27.665 c 0,50.177 -40.822,91 -91,91 -50.178,0 -91,-40.822 -91,-91 V 136 h 182 z m 71,214.618 V 472 c 0,4.418 -3.582,8 -8,8 -4.418,0 -8,-3.582 -8,-8 v -47.257 c 0,-36.795 -29.775,-66.572 -66.573,-66.571 -8.905,0 -17.38,-2.333 -24.754,-6.588 l -2.558,2.558 c -10.078,10.078 -15.629,23.479 -15.629,37.731 V 472 c 0,4.418 -3.582,8 -8,8 -4.418,0 -8,-3.582 -8,-8 v -78.984 c -13.109,3.653 -27.302,3.824 -40.971,0.014 V 472 c 0,4.418 -3.582,8 -8,8 -4.418,0 -8,-3.582 -8,-8 v -80.127 c 0,-8.023 -1.853,-16.082 -5.357,-23.303 -1.929,-3.975 -0.271,-8.761 3.704,-10.69 3.976,-1.929 8.762,-0.271 10.69,3.704 2.149,4.429 3.802,9.104 4.968,13.899 14.022,5.621 30.035,5.954 44.913,0.008 3.432,-14.235 10.291,-24.587 19.833,-34.128 -1.866,-2.136 -3.583,-4.435 -5.096,-6.919 -2.299,-3.773 -1.103,-8.696 2.67,-10.994 3.772,-2.299 8.695,-1.103 10.994,2.671 5.899,9.684 16.457,16.051 28.594,16.051 45.637,-0.002 82.572,36.93 82.572,82.571 z"
           id="path35" />
      </g>
      <g
         id="g2436"
         transform="matrix(1.5695181,0,0,1.5695181,-224.55171,-66.003767)">
        <g
           id="g207"
           transform="matrix(0.26458333,0,0,0.26458333,13.213855,51.066902)">
          <g
             id="g110">
            <path
               style="fill:#5a9bcc"
               d="m 265.954,434.411 c -4.268,0 -7.726,-3.459 -7.726,-7.726 v -18.458 c 0,-4.268 3.459,-7.726 7.726,-7.726 4.268,0 7.726,3.459 7.726,7.726 v 18.458 c 0,4.267 -3.459,7.726 -7.726,7.726 z"
               id="path102" />
            <path
               style="fill:#5a9bcc"
               d="m 294.366,434.411 c -4.268,0 -7.726,-3.459 -7.726,-7.726 v -18.458 c 0,-4.268 3.459,-7.726 7.726,-7.726 4.268,0 7.726,3.459 7.726,7.726 v 18.458 c 0.001,4.267 -3.458,7.726 -7.726,7.726 z"
               id="path104" />
            <path
               style="fill:#5a9bcc"
               d="m 322.779,434.411 c -4.268,0 -7.726,-3.459 -7.726,-7.726 v -18.458 c 0,-4.268 3.459,-7.726 7.726,-7.726 4.268,0 7.726,3.459 7.726,7.726 v 18.458 c 0,4.267 -3.459,7.726 -7.726,7.726 z"
               id="path106" />
            <path
               style="fill:#5a9bcc"
               d="m 351.191,434.411 c -4.268,0 -7.726,-3.459 -7.726,-7.726 v -18.458 c 0,-4.268 3.459,-7.726 7.726,-7.726 4.268,0 7.726,3.459 7.726,7.726 v 18.458 c 0.001,4.267 -3.458,7.726 -7.726,7.726 z"
               id="path108" />
          </g>
          <path
             style="fill:#d2e3f1"
             d="M 503.759,179.248 H 269.656 c -4.552,0 -8.241,-3.69 -8.241,-8.241 v -38.152 c 0,-4.552 3.69,-8.241 8.241,-8.241 h 234.102 c 4.552,0 8.241,3.69 8.241,8.241 v 38.152 c 10e-4,4.551 -3.689,8.241 -8.24,8.241 z"
             id="path112" />
          <path
             style="fill:#ff2796"
             d="m 333.01,179.248 h -63.354 c -4.552,0 -8.241,-3.69 -8.241,-8.241 v -38.152 c 0,-4.552 3.69,-8.241 8.241,-8.241 h 63.354 z"
             id="path114" />
          <path
             style="fill:#d2e3f1"
             d="M 503.759,273.099 H 269.656 c -4.552,0 -8.241,-3.69 -8.241,-8.241 v -38.152 c 0,-4.552 3.69,-8.241 8.241,-8.241 h 234.102 c 4.552,0 8.241,3.69 8.241,8.241 v 38.152 c 10e-4,4.551 -3.689,8.241 -8.24,8.241 z"
             id="path116" />
          <path
             style="fill:#8ae46d"
             d="M 448.927,273.099 H 269.656 c -4.552,0 -8.241,-3.69 -8.241,-8.241 v -38.152 c 0,-4.552 3.69,-8.241 8.241,-8.241 h 179.271 z"
             id="path118" />
          <path
             style="fill:#d2e3f1"
             d="M 503.759,366.949 H 269.656 c -4.552,0 -8.241,-3.69 -8.241,-8.241 v -38.152 c 0,-4.552 3.69,-8.241 8.241,-8.241 h 234.102 c 4.552,0 8.241,3.69 8.241,8.241 v 38.152 c 10e-4,4.551 -3.689,8.241 -8.24,8.241 z"
             id="path120" />
          <path
             style="fill:#fec007"
             d="m 408.016,366.949 h -138.36 c -4.552,0 -8.241,-3.69 -8.241,-8.241 v -38.152 c 0,-4.552 3.69,-8.241 8.241,-8.241 h 138.36 z"
             id="path122" />
          <g
             id="g124" />
          <g
             id="g126" />
          <g
             id="g128" />
          <g
             id="g130" />
          <g
             id="g132" />
          <g
             id="g134" />
          <g
             id="g136" />
          <g
             id="g138" />
          <g
             id="g140" />
          <g
             id="g142" />
          <g
             id="g144" />
          <g
             id="g146" />
          <g
             id="g148" />
          <g
             id="g150" />
          <g
             id="g152" />
        </g>
      </g>
    </g>
  </g>
</svg>
